PathFileType	4	(X/Y/Z)	SUBJ36_3_walk_RCNL2025.trc
DataRate	CameraRate	NumFrames	NumMarkers	Units	OrigDataRate	OrigDataStartFrame	OrigNumFrames
100	100	10	25	mm	100	302	344
Frame#	Time	R_Shoulder			L_Shoulder			C7			J_Notch			R_Elbow			L_Elbow			R_Wrist			L_Wrist			R_Asis			L_Asis			Sacral			Thoracic			Sternum			R_Thigh_Lateral			R_Knee_Lateral			R_Shank_Lateral			R_Ankle_Lateral			R_Heel			R_Toe			L_Thigh_Lateral			L_Knee_Lateral			L_Shank_Lateral			L_Ankle_Lateral			L_Heel			L_Toe		
		X1	Y1	Z1	X2	Y2	Z2	X3	Y3	Z3	X4	Y4	Z4	X5	Y5	Z5	X6	Y6	Z6	X7	Y7	Z7	X8	Y8	Z8	X9	Y9	Z9	X10	Y10	Z10	X11	Y11	Z11	X12	Y12	Z12	X13	Y13	Z13	X14	Y14	Z14	X15	Y15	Z15	X16	Y16	Z16	X17	Y17	Z17	X18	Y18	Z18	X19	Y19	Z19	X20	Y20	Z20	X21	Y21	Z21	X22	Y22	Z22	X23	Y23	Z23	X24	Y24	Z24	X25	Y25	Z25
302	3.01000000	952.984924	1341.187378	345.909668	966.353149	1318.163940	1.440719	894.286316	1401.248901	181.870926	1029.298218	1290.355957	185.276276	850.291260	1034.543701	419.065887	936.016663	1004.824768	-58.807724	886.474274	799.796143	463.195099	1071.395752	814.020630	-28.450131	1007.215088	911.720703	300.840210	1014.539978	909.445435	68.467384	792.431152	891.949585	191.685928	807.659119	1148.142700	178.136169	1057.625488	1110.045288	198.216080	1058.220093	513.447937	359.594086	1085.072144	458.081818	315.193115	1107.701904	251.937210	359.989349	1153.572388	83.536087	292.601288	1113.440308	48.231125	247.893875	1275.773926	85.485718	269.470276	837.430664	533.407715	8.679276	821.020874	462.013031	85.155693	744.447144	259.651337	64.517212	704.285706	99.513588	147.343658	661.628052	79.651840	201.858917	825.447449	50.096359	163.725418
303	3.02000000	963.403564	1339.736328	346.510376	977.100281	1316.692749	2.049346	904.792236	1399.663452	182.398758	1039.961060	1289.071533	185.868790	860.918396	1033.000488	419.408478	949.520935	1003.216309	-58.330116	895.986176	798.106964	463.518311	1085.967896	813.323975	-27.096506	1019.038940	910.330444	301.162384	1026.007080	908.646484	68.593414	804.264038	890.399170	192.430405	818.578064	1146.412720	178.754013	1068.564697	1108.779541	198.705826	1066.668335	509.716919	358.352875	1095.443726	455.832275	313.859344	1128.169678	250.789322	358.828827	1180.322388	83.804276	290.969604	1140.464478	46.965603	247.075500	1302.202637	90.030746	265.471466	845.791809	533.732361	8.359406	828.375427	462.527832	84.851128	748.274597	261.519867	64.019020	705.737000	101.832794	146.655136	662.630127	82.735641	201.059937	826.026978	50.068211	163.463882
304	3.03000000	973.939941	1338.288574	347.193054	987.832764	1315.295166	2.719396	915.348511	1398.101074	183.027298	1050.708008	1287.845703	186.498032	871.709534	1031.436035	419.826813	963.007629	1001.677612	-57.717613	905.883698	796.418701	463.861832	1100.371826	812.580231	-25.775606	1031.072876	908.890198	301.472321	1037.694702	907.727112	68.769806	816.288879	888.860046	193.168442	829.642334	1144.662842	179.465195	1079.627930	1107.570435	199.173615	1075.392334	506.107330	356.966980	1106.101929	453.730347	312.399017	1147.660522	249.954086	357.504852	1204.824341	84.310837	289.184113	1165.115845	46.135605	246.027542	1326.257202	94.038795	261.487823	854.792664	533.847107	7.995065	836.313660	462.853180	84.513252	752.660339	263.294739	63.410789	707.361877	104.230278	145.803314	663.740601	85.980011	200.096832	826.655945	50.042980	163.170441
305	3.04000000	984.608765	1336.851440	347.958435	998.572388	1313.994019	3.446015	925.969177	1396.575928	183.762405	1061.556519	1286.690063	187.166016	882.653442	1029.857300	420.310852	976.465576	1000.241943	-56.981586	916.168243	794.741425	464.239090	1114.589661	811.806580	-24.495534	1043.313721	907.408325	301.774994	1049.617188	906.694031	68.993263	828.514893	887.350708	193.903366	840.865845	1142.901123	180.261810	1090.843384	1106.431519	199.618515	1084.725830	502.814575	355.534607	1117.189819	451.817749	310.877258	1166.046265	249.259369	356.023285	1226.875977	84.774765	287.206482	1187.209351	45.523048	244.697510	1347.832031	97.195007	257.573242	864.322815	533.797546	7.605092	844.780334	463.008301	84.148697	757.556091	264.990814	62.705742	709.165527	106.721054	144.799591	665.002563	89.396156	198.995361	827.342957	50.034962	162.842087
306	3.05000000	995.423218	1335.432861	348.806000	1009.345764	1312.806030	4.226015	936.666870	1395.100708	184.608017	1072.523560	1285.614014	187.876358	893.743958	1028.273071	420.847321	989.885681	998.938293	-56.142712	926.837128	793.084076	464.659775	1128.605835	811.019531	-23.264529	1055.760864	905.898804	302.073944	1061.782471	905.558533	69.259384	840.945251	885.899597	194.644043	852.261108	1141.137695	181.137802	1102.240967	1105.377563	200.041611	1094.979248	499.990173	354.168945	1128.771973	450.089478	309.353210	1183.175171	248.526245	354.389496	1246.346191	84.938385	285.010712	1206.630615	44.937820	243.046463	1366.874268	99.228317	253.789444	874.261169	533.641479	7.217608	853.710693	463.016663	83.774162	762.894470	266.635376	61.927311	711.151611	109.323296	143.665802	666.457153	92.991577	197.781906	828.098938	50.053368	162.473892
307	3.06000000	1006.394714	1334.040039	349.735168	1020.182251	1311.740845	5.059026	947.456482	1393.687256	185.566086	1083.624878	1284.624756	188.633423	904.982361	1026.693970	421.426086	1003.250305	997.780701	-55.220268	937.885223	791.454773	465.126236	1142.412781	810.236908	-22.094682	1068.416870	904.381653	302.370117	1074.193481	904.332947	69.563774	853.575623	884.542053	195.402023	863.839539	1139.388062	182.089417	1113.849731	1104.423828	200.446671	1106.351440	497.721283	352.960205	1140.839844	448.510071	307.869293	1198.890503	247.601425	352.610199	1263.190308	84.611855	282.602081	1223.335938	44.249428	241.076370	1383.390137	99.930702	250.202438	884.491394	533.433167	6.866394	863.042603	462.902039	83.411095	768.602844	268.264832	61.104256	713.326599	112.055702	142.430222	668.140137	96.770470	196.481094	828.930420	50.096420	162.063538
308	3.07000000	1017.532166	1332.678955	350.746124	1031.111572	1310.801880	5.947207	958.357483	1392.346924	186.635574	1094.875854	1283.730713	189.441574	916.378418	1025.132446	422.042633	1016.528076	996.766052	-54.224579	949.306061	789.861664	465.633347	1156.009399	809.476318	-21.000459	1081.284302	902.882263	302.662506	1086.847290	903.028870	69.902031	866.395935	883.313354	196.184921	875.611267	1137.675293	183.111862	1125.693359	1103.586182	200.841599	1118.875977	496.027893	351.947327	1153.337891	447.045258	306.451965	1213.068726	246.391617	350.697601	1277.462158	83.709831	280.030823	1237.356445	43.411972	238.846344	1397.451416	99.172676	246.876312	894.920593	533.209412	6.588045	872.730103	462.684235	83.081909	774.620239	269.922760	60.265816	715.704651	114.935555	141.123123	670.086609	100.736320	195.120041	829.834717	50.146286	161.616974
309	3.08000000	1028.842651	1331.357666	351.839203	1042.161377	1309.987915	6.893790	969.392273	1391.095825	187.811523	1106.290283	1282.944946	190.305145	927.948547	1023.601257	422.693451	1029.679321	995.882507	-53.159584	961.092224	788.313904	466.170609	1169.393677	808.752045	-19.992630	1094.360596	901.431580	302.948425	1099.735107	901.657593	70.269936	879.392334	882.242432	196.989380	887.584961	1136.032471	184.194153	1137.786133	1102.881348	201.239227	1132.434692	494.876282	351.116272	1166.192261	445.687531	305.117798	1225.668823	244.893173	348.673920	1289.317627	82.269730	277.397522	1248.805298	42.475231	236.471634	1409.202148	96.919029	243.869675	905.496094	532.980774	6.418807	882.753906	462.374481	82.810066	780.911865	271.657684	59.439228	718.311401	117.978561	139.774643	672.340149	104.895020	193.732101	830.800049	50.168594	161.153397
310	3.09000000	1040.331787	1330.089233	353.012756	1053.356689	1309.299194	7.900290	980.584290	1389.960693	189.086044	1117.880005	1282.285645	191.228271	939.711792	1022.113647	423.374481	1042.667603	995.121399	-52.030197	973.235413	786.822784	466.724823	1182.556335	808.075012	-19.074341	1107.635132	900.068665	303.222931	1112.840576	900.232483	70.664490	892.545410	881.349182	197.799072	899.765869	1134.504517	185.316467	1150.129150	1102.326538	201.656403	1146.818115	494.208130	350.424377	1179.330322	444.466095	303.878662	1236.774048	243.206497	346.571716	1299.004639	80.447586	274.848083	1257.882324	41.574837	234.105347	1418.856323	93.244324	241.237061	916.217468	532.732361	6.389606	893.129333	461.974945	82.617737	787.479614	273.517914	58.648556	721.187500	121.200218	138.414764	674.958435	109.257278	192.355392	831.811584	50.118870	160.706177
311	3.10000000	1052.003662	1328.895386	354.259888	1064.720825	1308.741821	8.964514	991.957336	1388.980835	190.449020	1129.653687	1281.778198	192.213928	951.689392	1020.687012	424.081940	1055.468140	994.484985	-50.846226	985.726868	785.403931	467.281631	1195.481628	807.456360	-18.244626	1121.085327	898.845459	303.480408	1126.136719	898.772522	71.085411	905.825317	880.647644	198.587433	912.151001	1133.147949	186.451965	1162.708496	1101.941650	202.110947	1161.798218	493.978180	349.834412	1192.694946	443.449463	302.749176	1246.605591	241.527039	344.434845	1306.837280	78.488472	272.551239	1264.868896	40.895866	231.907806	1426.685791	88.345932	239.032150	927.138245	532.431274	6.521424	903.910889	461.480042	82.519005	794.361511	275.538696	57.917465	724.392761	124.616577	137.072739	678.017700	113.840431	191.027634	832.863525	49.957775	160.312057
